<?xml version="1.0" standalone="no"?>
<!DOCTYPE svg PUBLIC "-//W3C//DTD SVG 20010904//EN"
 "http://www.w3.org/TR/2001/REC-SVG-20010904/DTD/svg10.dtd">
<svg version="1.0" xmlns="http://www.w3.org/2000/svg"
 width="1637.000000pt" height="1559.000000pt" viewBox="0 0 1637.000000 1559.000000"
 preserveAspectRatio="xMidYMid meet">
<metadata>
Created by potrace 1.13, written by Peter Selinger 2001-2015
</metadata>
<g transform="translate(0.000000,1559.000000) scale(0.100000,-0.100000)"
fill="#000000" stroke="none">
<path d="M7905 15234 c-1144 -59 -2162 -322 -3149 -816 -2364 -1182 -3973
-3481 -4265 -6093 -38 -334 -45 -485 -45 -885 0 -400 7 -551 45 -885 249
-2225 1455 -4239 3314 -5532 150 -104 401 -263 560 -353 61 -34 151 -86 200
-115 124 -72 254 -137 264 -130 5 3 12 33 16 67 3 35 12 101 20 148 7 47 19
126 25 175 7 50 16 116 21 147 6 32 14 93 19 135 5 43 18 139 30 213 11 74 20
145 20 157 0 12 18 61 41 109 22 49 51 111 64 139 13 27 40 86 60 130 21 44
62 134 92 200 30 66 58 124 62 130 4 5 15 28 24 50 8 22 35 83 60 135 50 107
94 200 144 310 97 210 142 308 190 410 20 41 47 100 60 130 14 30 43 93 65
140 72 154 69 136 98 585 5 72 13 182 18 245 6 63 16 185 22 270 6 85 17 236
25 335 8 99 19 248 25 330 6 83 17 231 25 330 8 99 19 243 24 320 6 77 17 226
25 330 8 105 20 258 26 340 6 83 18 226 26 319 9 112 11 173 4 181 -5 6 -56
31 -112 55 -57 24 -107 47 -113 52 -5 4 -15 8 -22 8 -11 0 -49 16 -168 70 -22
10 -107 46 -189 80 -83 34 -157 66 -165 70 -9 4 -27 12 -41 18 -14 6 -45 20
-70 30 -25 11 -74 32 -110 47 -36 15 -85 36 -110 47 -25 11 -54 24 -65 28 -11
5 -45 20 -75 33 -30 13 -147 63 -260 110 -113 47 -230 96 -260 110 -30 14
-111 48 -180 77 -68 29 -144 61 -167 71 -24 10 -62 27 -85 38 -24 10 -122 51
-218 91 -96 40 -181 77 -188 83 -7 5 -77 138 -156 296 -80 157 -209 413 -287
568 -79 155 -140 285 -137 288 3 4 153 -107 334 -247 381 -295 396 -307 490
-379 38 -29 195 -151 348 -269 347 -269 333 -260 408 -276 35 -8 115 -25 178
-39 63 -13 147 -32 185 -40 39 -9 90 -20 115 -25 25 -5 74 -16 110 -24 173
-39 494 -109 579 -127 42 -9 107 -25 144 -36 16 -4 17 -2 8 15 -6 11 -23 27
-38 34 -54 27 -148 81 -175 99 -14 11 -28 19 -31 19 -2 0 -55 29 -117 65 -62
36 -114 65 -115 65 -1 0 -69 39 -151 86 -82 47 -168 97 -191 110 -24 13 -78
43 -120 67 -43 25 -95 54 -116 66 -21 12 -95 54 -165 95 -70 40 -154 88 -187
106 -103 57 -126 74 -285 212 -130 112 -879 756 -1074 923 -32 27 -95 82 -140
121 -45 39 -133 115 -196 169 -63 54 -115 103 -115 108 0 6 18 15 40 20 22 4
67 14 100 22 33 7 114 26 180 41 105 23 123 30 147 58 15 17 28 34 28 37 0 4
127 211 282 460 313 504 347 561 411 669 25 41 53 82 63 91 14 11 61 19 169
28 83 7 197 16 255 21 58 5 184 16 280 25 96 8 231 20 299 25 68 5 171 14 230
20 181 17 312 29 405 36 62 5 94 12 105 23 9 9 135 199 281 424 146 224 272
409 280 411 8 3 332 7 720 10 388 3 953 9 1255 12 l550 6 195 -126 c107 -69
256 -164 330 -211 74 -47 223 -143 330 -212 107 -69 260 -167 340 -218 80 -51
187 -120 238 -154 l93 -62 -19 -32 c-20 -33 -123 -212 -162 -282 -12 -22 -42
-74 -65 -115 -23 -41 -53 -93 -65 -115 -22 -39 -90 -160 -215 -380 -35 -61
-73 -129 -85 -150 -12 -22 -42 -74 -65 -115 -23 -41 -53 -93 -65 -115 -21 -37
-53 -94 -214 -378 -35 -61 -75 -132 -89 -157 -16 -30 -29 -76 -37 -135 -6 -49
-16 -110 -21 -135 -4 -25 -13 -81 -20 -125 -19 -143 -27 -198 -44 -300 -8 -55
-20 -131 -25 -170 -5 -38 -14 -95 -19 -125 -5 -30 -14 -91 -21 -135 -6 -44
-18 -123 -26 -175 -8 -52 -19 -124 -24 -160 -5 -36 -16 -108 -24 -160 -8 -52
-20 -131 -26 -175 -7 -44 -16 -102 -21 -130 -5 -27 -14 -84 -19 -125 -5 -41
-17 -118 -25 -170 -8 -52 -20 -126 -25 -165 -5 -38 -17 -113 -25 -165 -9 -52
-20 -126 -25 -165 -5 -38 -21 -144 -35 -235 -14 -91 -32 -212 -40 -269 -9 -57
-18 -114 -21 -126 -4 -16 2 -28 23 -44 25 -20 733 -459 765 -475 7 -3 33 -20
58 -36 25 -16 63 -39 86 -51 l40 -21 55 25 c30 14 140 66 244 117 105 51 237
115 295 142 58 28 177 85 265 128 204 99 454 220 620 300 72 35 222 107 333
161 112 55 208 96 214 93 5 -3 7 -12 4 -20 -5 -14 -28 -296 -46 -564 -5 -74
-16 -223 -25 -330 -8 -107 -20 -260 -25 -340 -5 -80 -13 -192 -19 -250 -5 -58
-14 -184 -21 -280 -6 -96 -15 -222 -21 -280 -10 -112 -26 -335 -35 -490 l-6
-95 229 -215 c279 -264 413 -391 520 -495 l82 -80 15 -145 c8 -80 20 -208 26
-285 6 -77 18 -203 25 -280 8 -77 16 -174 19 -215 3 -41 13 -149 21 -240 9
-91 20 -219 25 -285 5 -66 17 -192 25 -280 9 -88 20 -216 25 -285 5 -69 14
-168 20 -220 5 -52 10 -99 10 -103 0 -23 381 261 660 492 1559 1293 2557 3133
2779 5126 39 345 45 476 45 885 0 409 -6 540 -45 885 -152 1365 -672 2675
-1500 3781 -959 1281 -2277 2233 -3790 2737 -600 200 -1200 320 -1884 377
-130 11 -778 21 -910 14z m2849 -3750 c88 -30 202 -69 251 -85 50 -17 99 -34
110 -39 11 -5 81 -29 155 -54 268 -89 598 -204 617 -214 11 -6 34 -44 51 -84
17 -40 59 -136 93 -213 69 -158 132 -303 208 -480 28 -66 58 -133 66 -150 19
-40 135 -305 135 -310 0 -2 15 -36 34 -77 18 -40 46 -102 61 -138 15 -36 38
-89 51 -118 13 -29 36 -80 50 -115 27 -64 33 -78 79 -182 15 -33 35 -80 45
-105 10 -25 32 -75 49 -112 17 -37 42 -96 57 -130 14 -35 39 -91 55 -126 16
-35 29 -65 29 -67 0 -3 11 -29 25 -60 14 -30 36 -80 50 -110 14 -31 25 -57 25
-60 0 -2 13 -32 29 -67 16 -35 41 -91 55 -126 15 -34 39 -91 55 -125 46 -101
94 -218 90 -221 -5 -4 -114 -62 -294 -156 -77 -40 -160 -84 -185 -98 -25 -13
-106 -56 -180 -94 -74 -39 -157 -83 -185 -98 -27 -15 -108 -58 -180 -95 -71
-37 -157 -82 -190 -100 -55 -29 -129 -69 -375 -197 -47 -25 -115 -61 -150 -80
-70 -38 -203 -108 -395 -208 -66 -35 -147 -77 -180 -95 -56 -30 -178 -94 -390
-205 -49 -26 -130 -69 -180 -95 -49 -26 -133 -70 -185 -98 -52 -27 -126 -67
-165 -87 -38 -20 -132 -70 -208 -109 l-138 -72 -37 22 c-20 13 -86 56 -146 96
-60 40 -110 73 -112 73 -2 0 -43 26 -91 58 -48 32 -127 84 -175 116 -99 65
-95 54 -74 190 8 50 27 168 41 261 14 94 32 208 40 255 7 47 18 121 25 165 6
44 17 118 25 165 7 47 18 121 25 165 6 44 15 103 20 130 5 28 11 70 15 95 7
52 18 126 39 255 8 50 19 126 26 170 6 44 18 123 26 175 8 52 19 122 24 155 5
33 16 103 24 155 8 52 19 129 26 170 6 41 17 116 25 165 8 50 26 169 40 265
14 96 30 198 35 225 5 28 12 73 15 100 8 65 19 93 78 195 27 47 60 105 74 130
24 43 77 136 218 385 35 61 73 129 85 150 12 22 42 74 65 115 23 41 53 93 65
115 22 40 96 170 217 383 35 62 75 134 90 160 15 26 48 85 75 131 26 46 48 87
48 90 0 10 23 31 33 31 5 0 82 -25 171 -56z"/>
<path d="M7195 11914 c-55 -7 -134 -17 -175 -23 -41 -6 -93 -11 -116 -11 -22
0 -47 -6 -56 -12 -9 -7 -30 -47 -48 -88 -153 -361 -200 -475 -200 -487 0 -8
62 -82 138 -165 75 -83 161 -178 191 -212 30 -33 59 -62 66 -64 12 -3 162 33
449 107 126 33 161 37 198 22 13 -5 118 -40 233 -77 116 -36 290 -93 387 -125
170 -56 208 -66 208 -53 0 3 -24 31 -54 62 -29 32 -82 89 -117 128 -35 39
-257 283 -493 543 l-429 471 -41 -1 c-23 -1 -86 -8 -141 -15z"/>
</g>
</svg>
